<svg width="960" height="540" viewBox="0 0 960 540" fill="none" xmlns="http://www.w3.org/2000/svg">
  <rect width="960" height="540" fill="#0F1218"/>
  <rect x="24" y="20" width="912" height="56" rx="12" fill="#161B22" stroke="#2A3240"/>
  <text x="44" y="54" fill="#E6EDF3" font-family="monospace" font-size="18">Scorpion Dashboard (Preview)</text>
  <rect x="24" y="92" width="560" height="180" rx="12" fill="#161B22" stroke="#2A3240"/>
  <text x="44" y="120" fill="#9AA4B2" font-family="monospace" font-size="12">Latest Metrics</text>
  <rect x="44" y="138" width="156" height="110" rx="10" fill="#0F1218" stroke="#2A3240"/>
  <rect x="216" y="138" width="156" height="110" rx="10" fill="#0F1218" stroke="#2A3240"/>
  <rect x="388" y="138" width="156" height="110" rx="10" fill="#0F1218" stroke="#2A3240"/>
  <text x="60" y="170" fill="#9AA4B2" font-family="monospace" font-size="10">Reach</text>
  <text x="232" y="170" fill="#9AA4B2" font-family="monospace" font-size="10">Engagement</text>
  <text x="404" y="170" fill="#9AA4B2" font-family="monospace" font-size="10">Inbound</text>
  <text x="60" y="205" fill="#E6EDF3" font-family="monospace" font-size="20">12,000</text>
  <text x="232" y="205" fill="#E6EDF3" font-family="monospace" font-size="20">840</text>
  <text x="404" y="205" fill="#E6EDF3" font-family="monospace" font-size="20">6</text>

  <rect x="600" y="92" width="336" height="180" rx="12" fill="#161B22" stroke="#2A3240"/>
  <text x="620" y="120" fill="#9AA4B2" font-family="monospace" font-size="12">Run Log</text>
  <rect x="620" y="138" width="296" height="110" rx="8" fill="#0F1218" stroke="#2A3240"/>

  <rect x="24" y="288" width="452" height="220" rx="12" fill="#161B22" stroke="#2A3240"/>
  <text x="44" y="316" fill="#9AA4B2" font-family="monospace" font-size="12">Recent Tasks</text>
  <rect x="44" y="334" width="412" height="154" rx="8" fill="#0F1218" stroke="#2A3240"/>

  <rect x="484" y="288" width="452" height="220" rx="12" fill="#161B22" stroke="#2A3240"/>
  <text x="504" y="316" fill="#9AA4B2" font-family="monospace" font-size="12">Community (Last 50)</text>
  <rect x="504" y="334" width="412" height="154" rx="8" fill="#0F1218" stroke="#2A3240"/>
</svg>
